<svg xmlns="http://www.w3.org/2000/svg" xmlns:xlink="http://www.w3.org/1999/xlink" width="18" height="18" version="1.1" viewBox="0 0 18 18"><title>x-circle copy 3</title><desc>Created with Sketch.</desc><g id="⚒-Tooltips" fill="none" fill-rule="evenodd" stroke="none" stroke-width="1"><g id="Artboard-2" fill="#FF7559" fill-rule="nonzero" transform="translate(-984.000000, -579.000000)"><g id="x-circle-copy-3" transform="translate(985.000000, 580.000000)"><path id="Oval" d="M8,17 C3.02943725,17 -1,12.9705627 -1,8 C-1,3.02943725 3.02943725,-1 8,-1 C12.9705627,-1 17,3.02943725 17,8 C17,12.9705627 12.9705627,17 8,17 Z M8,15 C11.8659932,15 15,11.8659932 15,8 C15,4.13400675 11.8659932,1 8,1 C4.13400675,1 1,4.13400675 1,8 C1,11.8659932 4.13400675,15 8,15 Z"/><path id="Shape" d="M9.69289322,4.89289322 C10.0834175,4.50236893 10.7165825,4.50236893 11.1071068,4.89289322 C11.4976311,5.28341751 11.4976311,5.91658249 11.1071068,6.30710678 L6.30710678,11.1071068 C5.91658249,11.4976311 5.28341751,11.4976311 4.89289322,11.1071068 C4.50236893,10.7165825 4.50236893,10.0834175 4.89289322,9.69289322 L9.69289322,4.89289322 Z"/><path id="Shape" d="M4.89289322,6.30710678 C4.50236893,5.91658249 4.50236893,5.28341751 4.89289322,4.89289322 C5.28341751,4.50236893 5.91658249,4.50236893 6.30710678,4.89289322 L11.1071068,9.69289322 C11.4976311,10.0834175 11.4976311,10.7165825 11.1071068,11.1071068 C10.7165825,11.4976311 10.0834175,11.4976311 9.69289322,11.1071068 L4.89289322,6.30710678 Z"/></g></g></g></svg>